# Blender v2.57 (sub 1) OBJ File: 'shield2.blend'
# www.blender.org
mtllib shield2.mtl
o shield
v 1.689824 -1.459133 -0.381893
v 1.689824 -1.459133 -0.131894
v -1.310176 -1.459133 -0.131893
v -1.310176 -1.459133 -0.381894
v 1.689824 1.540867 -0.381893
v 1.689824 1.540867 -0.131893
v -1.310176 1.540867 -0.131893
v -1.310176 1.540867 -0.381894
v 0.189824 1.540867 -0.631893
v 0.189824 1.540867 -0.381893
v 0.189824 -1.459133 -0.631893
v 0.189824 -1.459133 -0.381893
vt 0.965171 0.003172
vt 0.997429 0.850086
vt 0.965170 0.850086
vt 0.997429 0.003172
vt 0.497356 0.004798
vt 0.464637 0.850745
vt 0.464637 0.004949
vt 0.497356 0.850594
vt 0.456566 0.930076
vt 0.229231 0.930076
vt 0.456566 0.859710
vt 0.229231 1.000441
vt 0.001895 0.930076
vt 0.001895 0.859710
vt 0.002526 0.005486
vt 0.230775 0.850875
vt 0.002526 0.850875
vt 0.230775 0.005486
vt 0.459024 0.005485
vt 0.459024 0.850875
vt 0.956668 0.006034
vt 0.956668 0.849445
vt 0.730456 0.849445
vt 0.003131 0.931905
vt 0.003131 0.861617
vt 0.230215 0.931906
vt 0.457300 0.931905
vt 0.230215 1.002195
vt 0.730456 0.006034
vt 0.457300 0.861617
vt 0.504244 0.006034
vt 0.504244 0.849445
vn 1.000000 0.000000 0.000002
vn 1.000000 -0.000000 -0.000001
vn -1.000000 -0.000000 -0.000001
vn -1.000000 0.000000 0.000002
vn -0.000000 1.000000 0.000000
vn 0.164399 -0.000000 -0.986394
vn -0.164399 -0.000000 -0.986394
vn -0.164399 -0.000000 0.986394
vn 0.000000 -1.000000 -0.000000
vn 0.164399 0.000000 0.986394
usemtl texture_shield.png
s off
f 2/1/1 5/2/1 6/3/1
f 1/4/2 5/2/2 2/1/2
f 3/5/3 8/6/3 4/7/3
f 3/5/4 7/8/4 8/6/4
f 5/9/5 10/10/5 6/11/5
f 5/9/5 9/12/5 8/13/5 10/10/5
f 7/14/5 10/10/5 8/13/5
f 1/15/6 9/16/6 5/17/6
f 1/15/6 11/18/6 9/16/6
f 4/19/7 8/20/7 9/16/7
f 4/19/7 9/16/7 11/18/7
f 2/21/8 6/22/8 10/23/8
f 1/24/9 2/25/9 12/26/9
f 1/24/9 12/26/9 4/27/9 11/28/9
f 2/21/8 10/23/8 12/29/8
f 3/30/9 4/27/9 12/26/9
f 3/31/10 10/23/10 7/32/10
f 3/31/10 12/29/10 10/23/10
