# Blender3D v249 OBJ File: 
# www.blender3d.org
mtllib stone.mtl
v 0.000000 -0.658932 0.000000
v 0.361800 -0.382540 0.262860
v -0.138193 -0.382540 0.425320
v -0.447212 -0.382540 0.000000
v -0.138193 -0.382540 -0.425320
v 0.361800 -0.382540 -0.262860
v 0.138193 0.064675 0.425320
v -0.361800 0.064675 0.262860
v -0.361800 0.064675 -0.262860
v 0.138193 0.064675 -0.425320
v 0.447212 0.064675 -0.000000
v 0.000000 0.341068 -0.000000
v 0.212661 -0.584259 0.154506
v -0.081228 -0.584260 0.249998
v 0.131434 -0.421801 0.404506
v 0.212661 -0.584259 -0.154506
v 0.425324 -0.421800 0.000000
v -0.262865 -0.584258 0.000000
v -0.344095 -0.421800 0.249998
v -0.081228 -0.584260 -0.249998
v -0.344095 -0.421800 -0.249998
v 0.131434 -0.421801 -0.404506
v 0.475529 -0.158932 -0.154506
v 0.475529 -0.158932 0.154506
v 0.293893 -0.158932 0.404508
v 0.000000 -0.158932 0.500000
v -0.293893 -0.158932 0.404508
v -0.475529 -0.158932 0.154506
v -0.475529 -0.158932 -0.154506
v -0.293893 -0.158932 -0.404508
v 0.000000 -0.158932 -0.500000
v 0.293893 -0.158932 -0.404508
v 0.344095 0.103936 0.249998
v -0.131434 0.103936 0.404506
v -0.425324 0.103936 -0.000000
v -0.131434 0.103936 -0.404506
v 0.344095 0.103936 -0.249998
v 0.262865 0.266393 -0.000000
v 0.081228 0.266395 0.249998
v -0.212661 0.266395 0.154506
v -0.212661 0.266395 -0.154506
v 0.081228 0.266395 -0.249998
vt 0.565717 0.297747
vt 0.606331 0.422747
vt 0.680900 0.368570
vt 0.459386 0.375001
vt 0.430904 0.308730
vt 0.459386 0.207870
vt 0.565717 0.289099
vt 0.500000 0.500000
vt 0.500000 0.289100
vt 0.368570 0.308730
vt 0.422747 0.207870
vt 0.606331 0.577253
vt 0.712662 0.500000
vt 0.631430 0.308730
vt 0.577253 0.207870
vt 0.327953 0.375001
vt 0.430904 0.287340
vt 0.368568 0.500000
vt 0.500000 0.308730
vt 0.500000 0.207871
vt 0.375001 0.289100
vt 0.624999 0.289100
vt 0.327953 0.624999
vt 0.459386 0.624999
vt 0.430904 0.712660
vt 0.565717 0.702253
vt 0.680900 0.631430
vt 0.422747 0.420534
vt 0.577253 0.420534
vt 0.500000 0.532338
vt 0.500000 0.420534
vt 0.646946 0.420534
vt 0.569096 0.532338
vt 0.680900 0.308730
vt 0.297746 0.420534
vt 0.368570 0.532338
vt 0.353054 0.420534
vt 0.327953 0.289100
vt 0.702254 0.420534
vt 0.631430 0.532338
vt 0.375001 0.551968
vt 0.672047 0.551968
vt 0.434283 0.551968
vt 0.319100 0.532338
vt 0.500000 0.551968
vt 0.624999 0.551968
vt 0.540614 0.375001
vt 0.569096 0.287340
vt 0.672047 0.375001
vt 0.631432 0.500000
vt 0.500000 0.633197
vt 0.393669 0.422747
vt 0.319100 0.368570
vt 0.434283 0.297747
vt 0.540614 0.633197
vt 0.577253 0.633197
vt 0.287338 0.500000
vt 0.393669 0.577253
vt 0.422747 0.633197
vt 0.434283 0.702253
vt 0.540614 0.624999
vt 0.319100 0.631430
vt 0.672047 0.624999
vt 0.569096 0.712660
vn 0.471317 -0.661687 0.583121
vn 0.187594 -0.794658 0.577345
vn -0.038547 -0.661687 0.748789
vn 0.102381 -0.943523 0.315090
vn 0.700228 -0.661688 0.268049
vn 0.607061 -0.794656 0.000000
vn 0.700228 -0.661687 -0.268049
vn 0.331304 -0.943524 0.000000
vn -0.408939 -0.661686 0.628443
vn -0.491119 -0.794657 0.356821
vn -0.724044 -0.661694 0.194735
vn -0.268034 -0.943523 0.194737
vn -0.724044 -0.661694 -0.194735
vn -0.491119 -0.794658 -0.356821
vn -0.408939 -0.661686 -0.628443
vn -0.268034 -0.943523 -0.194737
vn -0.038547 -0.661687 -0.748789
vn 0.187594 -0.794658 -0.577345
vn 0.471317 -0.661687 -0.583121
vn 0.102381 -0.943523 -0.315090
vn 0.904981 -0.330393 0.268049
vn 0.982246 -0.187599 0.000000
vn 0.992077 0.125631 0.000000
vn 0.904981 -0.330393 -0.268049
vn 0.024726 -0.330395 0.943519
vn 0.303531 -0.187597 0.934171
vn 0.306568 0.125651 0.943519
vn 0.534590 -0.330395 0.777851
vn -0.889698 -0.330386 0.315092
vn -0.794656 -0.187595 0.577348
vn -0.802607 0.125648 0.583125
vn -0.574584 -0.330397 0.748793
vn -0.574584 -0.330397 -0.748793
vn -0.794656 -0.187595 -0.577348
vn -0.802607 0.125648 -0.583125
vn -0.889698 -0.330386 -0.315092
vn 0.534590 -0.330395 -0.777851
vn 0.303531 -0.187598 -0.934171
vn 0.306568 0.125651 -0.943519
vn 0.024726 -0.330396 -0.943519
vn 0.889698 0.330386 0.315092
vn 0.794656 0.187595 0.577348
vn 0.574584 0.330397 0.748793
vn 0.802607 -0.125648 0.583125
vn -0.024726 0.330396 0.943519
vn -0.303531 0.187597 0.934171
vn -0.534590 0.330395 0.777851
vn -0.306568 -0.125651 0.943519
vn -0.904981 0.330393 0.268049
vn -0.982246 0.187599 0.000000
vn -0.904981 0.330393 -0.268049
vn -0.992077 -0.125631 0.000000
vn -0.534590 0.330395 -0.777851
vn -0.303531 0.187597 -0.934171
vn -0.024726 0.330396 -0.943519
vn -0.306568 -0.125651 -0.943519
vn 0.574584 0.330397 -0.748793
vn 0.794656 0.187595 -0.577348
vn 0.889698 0.330386 -0.315092
vn 0.802607 -0.125648 -0.583125
vn 0.408939 0.661686 0.628443
vn 0.491119 0.794658 0.356821
vn 0.268034 0.943523 0.194737
vn 0.724044 0.661694 0.194734
vn -0.471317 0.661687 0.583121
vn -0.187594 0.794658 0.577345
vn -0.102381 0.943523 0.315090
vn 0.038547 0.661687 0.748789
vn -0.700228 0.661688 -0.268049
vn -0.607060 0.794656 0.000000
vn -0.331305 0.943524 0.000000
vn -0.700228 0.661688 0.268049
vn 0.038547 0.661687 -0.748789
vn -0.187594 0.794658 -0.577345
vn -0.102381 0.943523 -0.315090
vn -0.471317 0.661687 -0.583121
vn 0.724044 0.661694 -0.194735
vn 0.491120 0.794657 -0.356821
vn 0.268034 0.943523 -0.194737
vn 0.408939 0.661686 -0.628443
usemtl None_stone.png
s off
f 15/1/1 13/2/1 2/3/1
f 13/2/2 15/1/2 14/4/2
f 3/5/3 14/6/3 15/7/3
f 14/4/4 1/8/4 13/2/4
f 17/9/5 2/10/5 13/11/5
f 13/2/6 16/12/6 17/13/6
f 6/14/7 17/9/7 16/15/7
f 13/2/8 1/8/8 16/12/8
f 19/16/9 14/4/9 3/17/9
f 14/4/10 19/16/10 18/18/10
f 4/19/11 18/20/11 19/21/11
f 18/18/12 1/8/12 14/4/12
f 21/22/13 18/20/13 4/19/13
f 18/18/14 21/23/14 20/24/14
f 5/25/15 20/24/15 21/23/15
f 20/24/16 1/8/16 18/18/16
f 22/7/17 20/6/17 5/5/17
f 20/24/18 22/26/18 16/12/18
f 6/27/19 16/12/19 22/26/19
f 16/12/20 1/8/20 20/24/20
f 24/28/21 2/10/21 17/9/21
f 17/9/22 23/29/22 24/28/22
f 11/30/23 24/28/23 23/29/23
f 23/29/24 17/9/24 6/14/24
f 26/31/25 3/5/25 15/7/25
f 15/7/26 25/32/26 26/31/26
f 7/33/27 26/31/27 25/32/27
f 25/32/28 15/7/28 2/34/28
f 28/28/29 4/19/29 19/21/29
f 19/21/30 27/35/30 28/28/30
f 8/36/31 28/28/31 27/35/31
f 27/37/32 19/38/32 3/5/32
f 30/37/33 5/5/33 21/38/33
f 21/22/34 29/29/34 30/39/34
f 9/40/35 30/39/35 29/29/35
f 29/29/36 21/22/36 4/19/36
f 32/32/37 6/34/37 22/7/37
f 22/7/38 31/31/38 32/32/38
f 10/33/39 32/32/39 31/31/39
f 31/31/40 22/7/40 5/5/40
f 33/41/41 24/28/41 11/30/41
f 24/28/42 33/41/42 25/35/42
f 7/33/43 25/32/43 33/42/43
f 25/35/44 2/10/44 24/28/44
f 34/43/45 26/31/45 7/33/45
f 26/31/46 34/43/46 27/37/46
f 8/44/47 27/37/47 34/43/47
f 27/37/48 3/5/48 26/31/48
f 35/45/49 28/28/49 8/36/49
f 28/28/50 35/45/50 29/29/50
f 9/40/51 29/29/51 35/45/51
f 29/29/52 4/19/52 28/28/52
f 36/43/53 30/37/53 9/44/53
f 30/37/54 36/43/54 31/31/54
f 10/33/55 31/31/55 36/43/55
f 31/31/56 5/5/56 30/37/56
f 37/42/57 32/32/57 10/33/57
f 32/39/58 37/46/58 23/29/58
f 11/30/59 23/29/59 37/46/59
f 23/29/60 6/14/60 32/39/60
f 39/47/61 7/48/61 33/49/61
f 33/49/62 38/50/62 39/47/62
f 12/8/63 39/47/63 38/50/63
f 38/51/64 33/41/64 11/30/64
f 40/52/65 8/53/65 34/54/65
f 34/54/66 39/47/66 40/52/66
f 12/8/67 40/52/67 39/47/67
f 39/55/68 34/43/68 7/33/68
f 41/56/69 9/40/69 35/45/69
f 35/57/70 40/52/70 41/58/70
f 12/8/71 41/58/71 40/52/71
f 40/59/72 35/45/72 8/36/72
f 42/55/73 10/33/73 36/43/73
f 36/60/74 41/58/74 42/61/74
f 12/8/75 42/61/75 41/58/75
f 41/58/76 36/60/76 9/62/76
f 38/51/77 11/30/77 37/46/77
f 37/63/78 42/61/78 38/50/78
f 12/8/79 38/50/79 42/61/79
f 42/61/80 37/63/80 10/64/80
